<?xml version="1.0" encoding="utf-8"?>
<!DOCTYPE svg PUBLIC "-//W3C//DTD SVG 1.1//EN" "http://www.w3.org/Graphics/SVG/1.1/DTD/svg11.dtd">
<svg width="124" height="30" viewBox="0 0 124 30" fill="none" xmlns="http://www.w3.org/2000/svg">
<path fill-rule="evenodd" clip-rule="evenodd" d="M10 22.28V8H12.7551V20.0472H19.3127V22.28H10ZM21.9732 22.28V8H30.9487V10.2327H24.6977V13.9738H29.7447V16.2057H24.6977V20.0472H31.2859V22.28H21.9732ZM32.6165 22.28L37.842 8H40.6955L45.9203 22.28H43.1507L41.8705 18.62H36.6457L35.3868 22.28H32.6173H32.6165ZM37.4949 16.4H41.4852L40.1271 12.6763C39.8677 11.8918 39.5229 10.52 39.5229 10.52H39.4794C39.4794 10.52 39.1345 11.8925 38.8751 12.6763L37.4941 16.4H37.4949ZM48.5808 22.28V8H53.7338C58.397 8 61.442 10.6145 61.442 15.1198C61.442 19.625 58.397 22.28 53.733 22.28H48.5808ZM51.242 19.76H53.4416C56.4286 19.76 58.3375 18.0777 58.3375 14.9105C58.3375 11.783 56.3874 10.1 53.4416 10.1H51.242V19.76ZM64.5457 22.28V8H73.5205V10.2327H67.2703V13.9738H72.3173V16.2057H67.2703V20.0472H73.8585V22.28H64.5457ZM76.963 22.28V8H81.9779C83.4779 8 84.2065 8.12 84.8497 8.3825C86.4138 8.9855 87.4217 10.3535 87.4217 12.284C87.4217 13.9737 86.4787 15.5825 84.8711 16.1862V16.226C84.8711 16.226 85.0641 16.4473 85.364 16.97L88.4929 22.28H85.3853L82.3854 16.9505H79.7272V22.28H76.9622H76.963ZM80.0675 14.72H82.5486C84.025 14.72 84.9451 13.8252 84.9451 12.368C84.9451 11.432 84.5812 10.6827 83.7472 10.3497C83.3619 10.1832 82.9126 10.1 82.0786 10.1H80.0675V14.72V14.72Z" fill="#1E1E2F"/>
<path fill-rule="evenodd" clip-rule="evenodd" d="M96.9191 22.28H99.5795V8H96.9191V22.28ZM109.238 8H101.353V22.28H109.238L112.883 18.8203V11.4605L109.238 8ZM104.014 20.18H110.666V10.52H104.014V20.18V20.18Z" fill="#2185FB"/>
<path fill-rule="evenodd" clip-rule="evenodd" d="M110.223 21.44L112.883 18.9898V11.2903L110.223 8.84003V21.44Z" fill="#116CD8"/>
</svg>