<?xml version="1.0" encoding="utf-8"?>
<!DOCTYPE svg PUBLIC "-//W3C//DTD SVG 1.1//EN" "http://www.w3.org/Graphics/SVG/1.1/DTD/svg11.dtd">
<svg width="73" height="30" viewBox="0 0 73 30" fill="none" xmlns="http://www.w3.org/2000/svg">
<path fill-rule="evenodd" clip-rule="evenodd" d="M49.971 15.2829V16.9029H42.7219C42.8323 18.9686 43.6811 19.9886 45.8626 19.9886C47.3396 19.9886 48.9269 19.5086 49.8437 18.8914V21.3686C48.9948 21.9514 47.5518 22.38 45.6249 22.38C41.7797 22.38 39.5982 20.2372 39.5982 15.84C39.5982 11.9829 41.3553 9.17145 45.0223 9.17145C48.0272 9.17145 49.971 10.8429 49.971 15.2829ZM44.9544 11.58C43.5113 11.58 42.7813 12.6429 42.7134 14.6572H46.8982V14.4C46.8982 12.8057 46.4483 11.58 44.9459 11.58H44.9544ZM22.2734 14.4857V9.40288H25.3038V22.2514H22.2734V16.8772H18.2415V22.2514H15.2366V9.39431H18.2415V14.4857H22.2734ZM62.8733 22.2514H59.461L55.0046 15.9429V22.2514H51.9997V9.39431H55.0046V15.3343L59.2488 9.40288H62.2961L58.0519 15.3343L62.8733 22.2514ZM71.7691 21.6086C71.0306 22.1486 70.0545 22.4057 68.6539 22.4057C64.6474 22.4057 62.6951 20.0572 62.6866 15.8486C62.6866 11.9657 64.6813 9.20573 68.5266 9.20573C70.0205 9.20573 71.1325 9.46288 71.7691 9.82288V12.3943C70.886 11.8805 69.8853 11.6087 68.8661 11.6057C66.8883 11.6057 65.8103 13.0114 65.8103 15.7714C65.8103 18.3772 66.6846 20.0057 68.8406 20.0057C70.1054 20.0057 71.0052 19.6629 71.7691 19.1314V21.6172V21.6086ZM37.5185 19.8429H38.8597V25.0714H36.0755V22.2257H29.3273V25.0714H26.5431V19.8343H27.4768C28.5378 17.6914 28.7501 13.6286 28.7501 10.4914V9.39431H37.5185V19.8429ZM30.2695 19.8429H34.5137V11.8029H31.3305V12.18C31.3305 14.4 31.1098 17.9057 30.2695 19.8429Z" fill="black"/>
<path d="M12.707 22.2429V4.5H8.25914C3.77728 4.5 1.43448 6.81429 1.43448 10.2429C1.43448 12.96 2.71623 14.5886 5.01658 16.2429L1.01855 22.2429H4.32902L8.78542 15.5143L7.24053 14.4771C5.37309 13.1914 4.44786 12.2057 4.44786 10.0543C4.44786 8.16857 5.76355 6.89143 8.26762 6.89143H9.63425V22.2343H12.707V22.2429Z" fill="#FC3F1D"/>
</svg>